<svg width="52" height="56" viewBox="0 0 52 56" fill="none" xmlns="http://www.w3.org/2000/svg">
<rect width="52" height="52" rx="15" fill="white"/>
<g filter="url(#filter0_f_116_25)">
<path fill-rule="evenodd" clip-rule="evenodd" d="M32.3875 26.6118C30.9573 25.1817 29.1176 24.232 27.1234 23.8943V22.6234C27.1234 22.1929 26.9524 21.7799 26.6479 21.4755C26.3435 21.171 25.9306 21 25.5 21C25.0694 21 24.6565 21.171 24.3521 21.4755C24.0476 21.7799 23.8766 22.1929 23.8766 22.6234V23.8932C21.8823 24.231 20.0425 25.1809 18.6122 26.6111C17.1819 28.0414 16.2321 29.8812 15.8943 31.8755H14.6234C14.1929 31.8755 13.7799 32.0466 13.4755 32.351C13.171 32.6555 13 33.0684 13 33.499C13 33.9295 13.171 34.3424 13.4755 34.6469C13.7799 34.9514 14.1929 35.1224 14.6234 35.1224H15.8943C16.2324 37.1164 17.1824 38.9559 18.6126 40.386C20.0429 41.816 21.8825 42.7658 23.8766 43.1036V44.3745C23.8766 44.805 24.0476 45.218 24.3521 45.5224C24.6565 45.8269 25.0694 45.9979 25.5 45.9979C25.9306 45.9979 26.3435 45.8269 26.6479 45.5224C26.9524 45.218 27.1234 44.805 27.1234 44.3745V43.1036C29.1175 42.7658 30.9571 41.816 32.3874 40.386C33.8176 38.9559 34.7676 37.1164 35.1057 35.1224H36.3766C36.8071 35.1224 37.2201 34.9514 37.5245 34.6469C37.829 34.3424 38 33.9295 38 33.499C38 33.0684 37.829 32.6555 37.5245 32.351C37.2201 32.0466 36.8071 31.8755 36.3766 31.8755H35.1057C34.7677 29.8814 33.8178 28.0418 32.3875 26.6118Z" fill="#2D87EB" fill-opacity="0.45"/>
</g>
<path opacity="0.91" fill-rule="evenodd" clip-rule="evenodd" d="M35.1426 13.8565C33.1402 11.8544 30.5646 10.5248 27.7728 10.052V8.27281C27.7728 7.67002 27.5334 7.09193 27.1071 6.66569C26.6809 6.23946 26.1028 6 25.5 6C24.8972 6 24.3191 6.23946 23.8929 6.66569C23.4666 7.09193 23.2272 7.67002 23.2272 8.27281V10.0505C20.4352 10.5234 17.8594 11.8532 15.8571 13.8556C13.8547 15.858 12.5249 18.4337 12.052 21.2257H10.2728C9.67003 21.2257 9.09193 21.4652 8.66569 21.8914C8.23946 22.3177 8 22.8958 8 23.4985C8 24.1013 8.23946 24.6794 8.66569 25.1057C9.09193 25.5319 9.67003 25.7714 10.2728 25.7714H12.052C12.5254 28.563 13.8554 31.1383 15.8577 33.1404C17.86 35.1424 20.4355 36.4721 23.2272 36.9451V38.7243C23.2272 39.3271 23.4666 39.9052 23.8929 40.3314C24.3191 40.7576 24.8972 40.9971 25.5 40.9971C26.1028 40.9971 26.6809 40.7576 27.1071 40.3314C27.5334 39.9052 27.7728 39.3271 27.7728 38.7243V36.9451C30.5645 36.4721 33.14 35.1424 35.1423 33.1404C37.1446 31.1383 38.4746 28.563 38.948 25.7714H40.7272C41.33 25.7714 41.9081 25.5319 42.3343 25.1057C42.7605 24.6794 43 24.1013 43 23.4985C43 22.8958 42.7605 22.3177 42.3343 21.8914C41.9081 21.4652 41.33 21.2257 40.7272 21.2257H38.948C38.4748 18.434 37.1449 15.8586 35.1426 13.8565Z" fill="url(#paint0_linear_116_25)"/>
<g filter="url(#filter1_di_116_25)">
<circle cx="25.5" cy="23.5" r="4.5" fill="url(#paint1_linear_116_25)"/>
</g>
<defs>
<filter id="filter0_f_116_25" x="3" y="11" width="45" height="44.9979" filterUnits="userSpaceOnUse" color-interpolation-filters="sRGB">
<feFlood flood-opacity="0" result="BackgroundImageFix"/>
<feBlend mode="normal" in="SourceGraphic" in2="BackgroundImageFix" result="shape"/>
<feGaussianBlur stdDeviation="5" result="effect1_foregroundBlur_116_25"/>
</filter>
<filter id="filter1_di_116_25" x="16.23" y="16.3" width="18.4" height="18.4" filterUnits="userSpaceOnUse" color-interpolation-filters="sRGB">
<feFlood flood-opacity="0" result="BackgroundImageFix"/>
<feColorMatrix in="SourceAlpha" type="matrix" values="0 0 0 0 0 0 0 0 0 0 0 0 0 0 0 0 0 0 127 0" result="hardAlpha"/>
<feOffset dx="-0.07" dy="2"/>
<feGaussianBlur stdDeviation="2.35"/>
<feComposite in2="hardAlpha" operator="out"/>
<feColorMatrix type="matrix" values="0 0 0 0 0.121569 0 0 0 0 0.458824 0 0 0 0 0.992157 0 0 0 0.75 0"/>
<feBlend mode="normal" in2="BackgroundImageFix" result="effect1_dropShadow_116_25"/>
<feBlend mode="normal" in="SourceGraphic" in2="effect1_dropShadow_116_25" result="shape"/>
<feColorMatrix in="SourceAlpha" type="matrix" values="0 0 0 0 0 0 0 0 0 0 0 0 0 0 0 0 0 0 127 0" result="hardAlpha"/>
<feOffset dx="-0.29" dy="-2"/>
<feGaussianBlur stdDeviation="2"/>
<feComposite in2="hardAlpha" operator="arithmetic" k2="-1" k3="1"/>
<feColorMatrix type="matrix" values="0 0 0 0 1 0 0 0 0 0.380392 0 0 0 0 0.0745098 0 0 0 0.22 0"/>
<feBlend mode="normal" in2="shape" result="effect2_innerShadow_116_25"/>
</filter>
<linearGradient id="paint0_linear_116_25" x1="25.5" y1="6" x2="25.5" y2="40.9971" gradientUnits="userSpaceOnUse">
<stop stop-color="#74B1F6"/>
<stop offset="0.865" stop-color="#0772E9"/>
<stop offset="1" stop-color="#007EFF"/>
</linearGradient>
<linearGradient id="paint1_linear_116_25" x1="23" y1="20" x2="27.5" y2="27.5" gradientUnits="userSpaceOnUse">
<stop stop-color="#FFF7AF"/>
<stop offset="1" stop-color="#FFE193"/>
</linearGradient>
</defs>
</svg>
