<svg width="52" height="52" viewBox="0 0 52 52" fill="none" xmlns="http://www.w3.org/2000/svg">
<rect width="52" height="52" rx="15" fill="white"/>
<g filter="url(#filter0_f_116_26)">
<rect x="39" y="45" width="26" height="21" rx="3" transform="rotate(-180 39 45)" fill="#FD7D1B" fill-opacity="0.7"/>
</g>
<path opacity="0.91" fill-rule="evenodd" clip-rule="evenodd" d="M22 8.5C22 7.67157 22.6716 7 23.5 7C24.3284 7 25 7.67157 25 8.5V12H29V8.5C29 7.67157 29.6716 7 30.5 7C31.3284 7 32 7.67157 32 8.5V12.1659C37.6754 13.118 42 18.054 42 24V30C42 36.6274 36.6274 42 30 42H23C16.3726 42 11 36.6274 11 30V24C11 17.7093 15.8405 12.5493 22 12.0411V8.5Z" fill="url(#paint0_linear_116_26)"/>
<rect opacity="0.4" x="16" y="17" width="21" height="21" rx="8" fill="#FFDCAA"/>
<g filter="url(#filter1_d_116_26)">
<path d="M24.4353 27.8124C24.5623 29.2003 24.8193 32.1353 24.8193 32.6703C24.8254 32.7234 24.8276 32.7769 24.8258 32.8303C24.8179 33.1429 24.6851 33.4401 24.4558 33.6585C24.2265 33.8768 23.9189 33.999 23.5986 33.9989H23.5409C23.1954 33.9761 22.8733 33.8203 22.6455 33.5657C22.4177 33.3112 22.3027 32.9787 22.3259 32.6414C22.3259 32.2241 22.5988 29.2249 22.7273 27.7877C22.7399 27.6487 22.7154 27.5087 22.6562 27.3816C22.597 27.2545 22.5051 27.1446 22.3894 27.0624C21.9364 26.7422 21.5725 26.3166 21.3306 25.8243C21.0886 25.3319 20.9764 24.7884 21.0041 24.243C21.0041 22.4605 22.1534 21.0176 23.5683 21.0176C24.9832 21.0176 26.1339 22.4605 26.1339 24.2705C26.1643 24.8142 26.0555 25.3566 25.8173 25.8489C25.5791 26.3412 25.219 26.7677 24.7695 27.0899C24.6548 27.172 24.5637 27.2817 24.5053 27.4083C24.4468 27.5349 24.423 27.6741 24.436 27.8124H24.4353ZM31.5849 21.0176C31.695 21.0176 31.8006 21.0603 31.8784 21.1363C31.9563 21.2123 32 21.3154 32 21.4229V24.8711C32.0003 25.1907 31.9361 25.5072 31.811 25.8026C31.6859 26.0979 31.5023 26.3663 31.2709 26.5923C31.1036 26.7557 30.9136 26.8952 30.7064 27.0068C30.6496 27.037 30.6034 27.0831 30.5736 27.139C30.5438 27.195 30.5317 27.2584 30.5389 27.3211L31.0882 32.1762C31.127 32.4003 31.1153 32.6301 31.0538 32.8493C30.9924 33.0686 30.8826 33.2722 30.7323 33.4458C30.582 33.6195 30.3948 33.759 30.1836 33.8547C29.9724 33.9504 29.7423 34 29.5095 34C29.2766 34 29.0466 33.9504 28.8354 33.8547C28.6242 33.759 28.4369 33.6195 28.2866 33.4458C28.1363 33.2722 28.0266 33.0686 27.9651 32.8493C27.9036 32.6301 27.8919 32.4003 27.9307 32.1762L28.5125 27.3338C28.5201 27.2721 28.5083 27.2096 28.4786 27.1546C28.449 27.0996 28.4029 27.0547 28.3465 27.0258C27.945 26.8187 27.609 26.5086 27.3746 26.1289C27.1402 25.7493 27.0162 25.3144 27.016 24.8711V21.4229C27.0137 21.3682 27.0227 21.3136 27.0426 21.2624C27.0624 21.2112 27.0926 21.1645 27.1314 21.125C27.1702 21.0855 27.2168 21.054 27.2684 21.0325C27.3199 21.0111 27.3754 21 27.4315 21C27.4876 21 27.543 21.0111 27.5946 21.0325C27.6462 21.054 27.6928 21.0855 27.7316 21.125C27.7704 21.1645 27.8006 21.2112 27.8204 21.2624C27.8403 21.3136 27.8493 21.3682 27.8469 21.4229V24.7696C27.8508 24.8477 27.8853 24.9214 27.9433 24.9753C28.0013 25.0293 28.0783 25.0594 28.1584 25.0594C28.2386 25.0594 28.3156 25.0293 28.3736 24.9753C28.4316 24.9214 28.4661 24.8477 28.4699 24.7696V21.4229C28.4676 21.3682 28.4766 21.3136 28.4964 21.2624C28.5163 21.2112 28.5465 21.1645 28.5853 21.125C28.6241 21.0855 28.6707 21.054 28.7223 21.0325C28.7738 21.0111 28.8293 21 28.8854 21C28.9415 21 28.9969 21.0111 29.0485 21.0325C29.1001 21.054 29.1467 21.0855 29.1855 21.125C29.2243 21.1645 29.2545 21.2112 29.2743 21.2624C29.2942 21.3136 29.3032 21.3682 29.3008 21.4229V24.8711C29.2992 24.8987 29.3033 24.9263 29.313 24.9523C29.3227 24.9783 29.3377 25.0021 29.3571 25.0223C29.3765 25.0424 29.4 25.0584 29.426 25.0694C29.452 25.0804 29.4801 25.086 29.5084 25.086C29.5367 25.086 29.5648 25.0804 29.5908 25.0694C29.6168 25.0584 29.6402 25.0424 29.6597 25.0223C29.6791 25.0021 29.6941 24.9783 29.7038 24.9523C29.7135 24.9263 29.7176 24.8987 29.7159 24.8711V21.4229C29.7136 21.3682 29.7226 21.3136 29.7424 21.2624C29.7623 21.2112 29.7925 21.1645 29.8313 21.125C29.8701 21.0855 29.9167 21.054 29.9683 21.0325C30.0198 21.0111 30.0753 21 30.1314 21C30.1874 21 30.2429 21.0111 30.2945 21.0325C30.3461 21.054 30.3927 21.0855 30.4315 21.125C30.4703 21.1645 30.5005 21.2112 30.5203 21.2624C30.5401 21.3136 30.5492 21.3682 30.5468 21.4229V24.7696C30.5507 24.8477 30.5852 24.9214 30.6432 24.9753C30.7012 25.0293 30.7782 25.0594 30.8583 25.0594C30.9384 25.0594 31.0155 25.0293 31.0735 24.9753C31.1315 24.9214 31.166 24.8477 31.1698 24.7696V21.4229C31.1698 21.3154 31.2136 21.2123 31.2914 21.1363C31.3692 21.0603 31.4748 21.0176 31.5849 21.0176Z" fill="url(#paint1_linear_116_26)"/>
</g>
<defs>
<filter id="filter0_f_116_26" x="6.5" y="17.5" width="39" height="34" filterUnits="userSpaceOnUse" color-interpolation-filters="sRGB">
<feFlood flood-opacity="0" result="BackgroundImageFix"/>
<feBlend mode="normal" in="SourceGraphic" in2="BackgroundImageFix" result="shape"/>
<feGaussianBlur stdDeviation="3.25" result="effect1_foregroundBlur_116_26"/>
</filter>
<filter id="filter1_d_116_26" x="17" y="21" width="19" height="21" filterUnits="userSpaceOnUse" color-interpolation-filters="sRGB">
<feFlood flood-opacity="0" result="BackgroundImageFix"/>
<feColorMatrix in="SourceAlpha" type="matrix" values="0 0 0 0 0 0 0 0 0 0 0 0 0 0 0 0 0 0 127 0" result="hardAlpha"/>
<feOffset dy="4"/>
<feGaussianBlur stdDeviation="2"/>
<feComposite in2="hardAlpha" operator="out"/>
<feColorMatrix type="matrix" values="0 0 0 0 1 0 0 0 0 0.662745 0 0 0 0 0.317647 0 0 0 0.37 0"/>
<feBlend mode="normal" in2="BackgroundImageFix" result="effect1_dropShadow_116_26"/>
<feBlend mode="normal" in="SourceGraphic" in2="effect1_dropShadow_116_26" result="shape"/>
</filter>
<linearGradient id="paint0_linear_116_26" x1="30" y1="42" x2="26" y2="8" gradientUnits="userSpaceOnUse">
<stop stop-color="#FF7811"/>
<stop offset="1" stop-color="#FFCD82"/>
</linearGradient>
<linearGradient id="paint1_linear_116_26" x1="26.5" y1="21" x2="26.5" y2="34" gradientUnits="userSpaceOnUse">
<stop stop-color="#FFF7B4"/>
<stop offset="1" stop-color="#FFE499"/>
</linearGradient>
</defs>
</svg>
