<svg width="40" height="45" viewBox="0 0 40 45" fill="none" xmlns="http://www.w3.org/2000/svg">
<g filter="url(#filter0_f_8_281)">
<rect x="33" y="38" width="26" height="21" rx="3" transform="rotate(-180 33 38)" fill="#FD7D1B" fill-opacity="0.7"/>
</g>
<path opacity="0.91" fill-rule="evenodd" clip-rule="evenodd" d="M16 1.5C16 0.67157 16.6716 0 17.5 0C18.3284 0 19 0.67157 19 1.5V5H23V1.5C23 0.67157 23.6716 0 24.5 0C25.3284 0 26 0.67157 26 1.5V5.16589C31.6754 6.11804 36 11.054 36 17V23C36 29.6274 30.6274 35 24 35H17C10.3726 35 5 29.6274 5 23V17C5 10.7093 9.84047 5.54926 16 5.04108V1.5Z" fill="url(#paint0_linear_8_281)"/>
<rect opacity="0.4" x="10" y="10" width="21" height="21" rx="8" fill="#FFDCAA"/>
<g filter="url(#filter1_d_8_281)">
<path d="M18.4353 20.8124C18.5623 22.2003 18.8193 25.1353 18.8193 25.6703C18.8254 25.7234 18.8276 25.7769 18.8258 25.8303C18.8179 26.1429 18.6851 26.4401 18.4558 26.6585C18.2265 26.8768 17.9189 26.999 17.5986 26.9989H17.5409C17.1954 26.9761 16.8733 26.8203 16.6455 26.5657C16.4177 26.3112 16.3027 25.9787 16.3259 25.6414C16.3259 25.2241 16.5988 22.2249 16.7273 20.7877C16.7399 20.6487 16.7154 20.5087 16.6562 20.3816C16.597 20.2545 16.5051 20.1446 16.3894 20.0624C15.9364 19.7422 15.5725 19.3166 15.3306 18.8243C15.0886 18.3319 14.9764 17.7884 15.0041 17.243C15.0041 15.4605 16.1534 14.0176 17.5683 14.0176C18.9832 14.0176 20.1339 15.4605 20.1339 17.2705C20.1643 17.8142 20.0555 18.3566 19.8173 18.8489C19.5791 19.3412 19.219 19.7677 18.7695 20.0899C18.6548 20.172 18.5637 20.2817 18.5053 20.4083C18.4468 20.5349 18.423 20.6741 18.436 20.8124H18.4353ZM25.5849 14.0176C25.695 14.0176 25.8006 14.0603 25.8784 14.1363C25.9563 14.2123 26 14.3154 26 14.4229V17.8711C26.0003 18.1907 25.9361 18.5072 25.811 18.8026C25.6859 19.0979 25.5023 19.3663 25.2709 19.5923C25.1036 19.7557 24.9136 19.8952 24.7064 20.0068C24.6496 20.037 24.6034 20.0831 24.5736 20.139C24.5438 20.195 24.5317 20.2584 24.5389 20.3211L25.0882 25.1762C25.127 25.4003 25.1153 25.6301 25.0538 25.8493C24.9924 26.0686 24.8826 26.2722 24.7323 26.4458C24.582 26.6195 24.3948 26.759 24.1836 26.8547C23.9724 26.9504 23.7423 27 23.5095 27C23.2766 27 23.0466 26.9504 22.8354 26.8547C22.6242 26.759 22.4369 26.6195 22.2866 26.4458C22.1363 26.2722 22.0266 26.0686 21.9651 25.8493C21.9036 25.6301 21.8919 25.4003 21.9307 25.1762L22.5125 20.3338C22.5201 20.2721 22.5083 20.2096 22.4786 20.1546C22.449 20.0996 22.4029 20.0547 22.3465 20.0258C21.945 19.8187 21.609 19.5086 21.3746 19.1289C21.1402 18.7493 21.0162 18.3144 21.016 17.8711V14.4229C21.0137 14.3682 21.0227 14.3136 21.0426 14.2624C21.0624 14.2112 21.0926 14.1645 21.1314 14.125C21.1702 14.0855 21.2168 14.054 21.2684 14.0325C21.3199 14.0111 21.3754 14 21.4315 14C21.4876 14 21.543 14.0111 21.5946 14.0325C21.6462 14.054 21.6928 14.0855 21.7316 14.125C21.7704 14.1645 21.8006 14.2112 21.8204 14.2624C21.8403 14.3136 21.8493 14.3682 21.8469 14.4229V17.7696C21.8508 17.8477 21.8853 17.9214 21.9433 17.9753C22.0013 18.0293 22.0783 18.0594 22.1584 18.0594C22.2386 18.0594 22.3156 18.0293 22.3736 17.9753C22.4316 17.9214 22.4661 17.8477 22.4699 17.7696V14.4229C22.4676 14.3682 22.4766 14.3136 22.4964 14.2624C22.5163 14.2112 22.5465 14.1645 22.5853 14.125C22.6241 14.0855 22.6707 14.054 22.7223 14.0325C22.7738 14.0111 22.8293 14 22.8854 14C22.9415 14 22.9969 14.0111 23.0485 14.0325C23.1001 14.054 23.1467 14.0855 23.1855 14.125C23.2243 14.1645 23.2545 14.2112 23.2743 14.2624C23.2942 14.3136 23.3032 14.3682 23.3008 14.4229V17.8711C23.2992 17.8987 23.3033 17.9263 23.313 17.9523C23.3227 17.9783 23.3377 18.0021 23.3571 18.0223C23.3765 18.0424 23.4 18.0584 23.426 18.0694C23.452 18.0804 23.4801 18.086 23.5084 18.086C23.5367 18.086 23.5648 18.0804 23.5908 18.0694C23.6168 18.0584 23.6402 18.0424 23.6597 18.0223C23.6791 18.0021 23.6941 17.9783 23.7038 17.9523C23.7135 17.9263 23.7176 17.8987 23.7159 17.8711V14.4229C23.7136 14.3682 23.7226 14.3136 23.7424 14.2624C23.7623 14.2112 23.7925 14.1645 23.8313 14.125C23.8701 14.0855 23.9167 14.054 23.9683 14.0325C24.0198 14.0111 24.0753 14 24.1314 14C24.1874 14 24.2429 14.0111 24.2945 14.0325C24.3461 14.054 24.3927 14.0855 24.4315 14.125C24.4703 14.1645 24.5005 14.2112 24.5203 14.2624C24.5401 14.3136 24.5492 14.3682 24.5468 14.4229V17.7696C24.5507 17.8477 24.5852 17.9214 24.6432 17.9753C24.7012 18.0293 24.7782 18.0594 24.8583 18.0594C24.9384 18.0594 25.0155 18.0293 25.0735 17.9753C25.1315 17.9214 25.166 17.8477 25.1698 17.7696V14.4229C25.1698 14.3154 25.2136 14.2123 25.2914 14.1363C25.3692 14.0603 25.4748 14.0176 25.5849 14.0176Z" fill="url(#paint1_linear_8_281)"/>
</g>
<defs>
<filter id="filter0_f_8_281" x="0.5" y="10.5" width="39" height="34" filterUnits="userSpaceOnUse" color-interpolation-filters="sRGB">
<feFlood flood-opacity="0" result="BackgroundImageFix"/>
<feBlend mode="normal" in="SourceGraphic" in2="BackgroundImageFix" result="shape"/>
<feGaussianBlur stdDeviation="3.25" result="effect1_foregroundBlur_8_281"/>
</filter>
<filter id="filter1_d_8_281" x="11" y="14" width="19" height="21" filterUnits="userSpaceOnUse" color-interpolation-filters="sRGB">
<feFlood flood-opacity="0" result="BackgroundImageFix"/>
<feColorMatrix in="SourceAlpha" type="matrix" values="0 0 0 0 0 0 0 0 0 0 0 0 0 0 0 0 0 0 127 0" result="hardAlpha"/>
<feOffset dy="4"/>
<feGaussianBlur stdDeviation="2"/>
<feComposite in2="hardAlpha" operator="out"/>
<feColorMatrix type="matrix" values="0 0 0 0 1 0 0 0 0 0.662745 0 0 0 0 0.317647 0 0 0 0.37 0"/>
<feBlend mode="normal" in2="BackgroundImageFix" result="effect1_dropShadow_8_281"/>
<feBlend mode="normal" in="SourceGraphic" in2="effect1_dropShadow_8_281" result="shape"/>
</filter>
<linearGradient id="paint0_linear_8_281" x1="24" y1="35" x2="20" y2="0.999998" gradientUnits="userSpaceOnUse">
<stop stop-color="#FF7811"/>
<stop offset="1" stop-color="#FFCD82"/>
</linearGradient>
<linearGradient id="paint1_linear_8_281" x1="20.5" y1="14" x2="20.5" y2="27" gradientUnits="userSpaceOnUse">
<stop stop-color="#FFF7B4"/>
<stop offset="1" stop-color="#FFE499"/>
</linearGradient>
</defs>
</svg>
