<svg width="61" height="63" viewBox="0 0 61 63" fill="none" xmlns="http://www.w3.org/2000/svg">
<rect x="6" y="2" width="52" height="52" rx="15" fill="white"/>
<path d="M20 34.9828C20 42.2029 24.9243 45 31 45C37.0757 45 42 42.2029 42 34.9828C42 27.7628 37.2575 20 31.1818 20C25.1083 20 20 27.7628 20 34.9828Z" fill="#FFC8B1"/>
<g filter="url(#filter0_f_116_27)">
<path d="M26.768 35.917C27.9889 34.1348 26.768 31.5833 26.768 31.5833C26.768 31.5833 28.1448 31.5833 29.4439 33.1396C31.1386 31.2458 30.9072 30.6705 30.6528 29.5144C34.4949 32.1961 36.2258 37.6992 34.0089 42C45.7786 35.3537 36.8442 25.7089 35.3074 24.5836C35.8188 25.7089 35.9139 27.6052 34.8817 28.5226C34.0089 22.2536 28.7934 21 28.7934 21C29.3021 24.4271 26.9286 27.6874 24.6448 30.4909C24.5605 29.1282 24.4748 28.1813 23.7559 26.8739C23.5953 29.3541 21.6917 31.3826 21.1803 33.8628C20.4896 37.2347 21.6957 39.3967 26.3262 42C24.8671 38.9809 25.6502 37.5477 26.768 35.917Z" fill="#FF4C00"/>
</g>
<path d="M25.8803 33.9613C27.7599 31.0985 27 26.5 27 26.5C27 26.5 28 27 30 29.5C32.6092 26.458 32.2529 25.5338 31.8613 23.6768C37.7764 27.9843 40.4413 36.824 37.0282 43.7325C55.1486 33.0565 41.3934 17.5639 39.0274 15.7564C39.8147 17.5639 39.961 20.6101 38.372 22.0837C37.0282 12.0136 28.9986 10 28.9986 10C29.7817 15.5049 26.1276 20.742 22.6115 25.2453C22.4817 23.0565 22.3498 21.5354 21.243 19.4353C20.9957 23.4192 18.0649 26.6777 17.2776 30.6616C16.2141 36.0779 18.0711 39.5507 25.2001 43.7325C22.9536 38.8829 24.1593 36.5808 25.8803 33.9613Z" fill="url(#paint0_linear_116_27)"/>
<g filter="url(#filter1_di_116_27)">
<path d="M31.7062 39.8385L34.9306 35.5968C35.0572 35.4301 35.0058 35.2049 34.8157 35.0939C34.7478 35.0542 34.6681 35.033 34.5865 35.033H32.0513V32.3627C32.0513 32.1624 31.8662 32 31.6379 32C31.4996 32 31.3706 32.0606 31.2938 32.1615L28.0694 36.4032C27.9428 36.5699 27.9942 36.795 28.1842 36.9061C28.2521 36.9459 28.3319 36.9671 28.4135 36.9671H30.9487V39.6373C30.9487 39.8376 31.1338 40 31.3621 40C31.5004 40 31.6296 39.9394 31.7062 39.8385Z" fill="url(#paint1_linear_116_27)"/>
</g>
<defs>
<filter id="filter0_f_116_27" x="0.6" y="0.6" width="59.8" height="61.8" filterUnits="userSpaceOnUse" color-interpolation-filters="sRGB">
<feFlood flood-opacity="0" result="BackgroundImageFix"/>
<feBlend mode="normal" in="SourceGraphic" in2="BackgroundImageFix" result="shape"/>
<feGaussianBlur stdDeviation="10.2" result="effect1_foregroundBlur_116_27"/>
</filter>
<filter id="filter1_di_116_27" x="25" y="30" width="13" height="14" filterUnits="userSpaceOnUse" color-interpolation-filters="sRGB">
<feFlood flood-opacity="0" result="BackgroundImageFix"/>
<feColorMatrix in="SourceAlpha" type="matrix" values="0 0 0 0 0 0 0 0 0 0 0 0 0 0 0 0 0 0 127 0" result="hardAlpha"/>
<feOffset dy="1"/>
<feGaussianBlur stdDeviation="1.5"/>
<feComposite in2="hardAlpha" operator="out"/>
<feColorMatrix type="matrix" values="0 0 0 0 1 0 0 0 0 0.576471 0 0 0 0 0.254902 0 0 0 1 0"/>
<feBlend mode="normal" in2="BackgroundImageFix" result="effect1_dropShadow_116_27"/>
<feBlend mode="normal" in="SourceGraphic" in2="effect1_dropShadow_116_27" result="shape"/>
<feColorMatrix in="SourceAlpha" type="matrix" values="0 0 0 0 0 0 0 0 0 0 0 0 0 0 0 0 0 0 127 0" result="hardAlpha"/>
<feOffset dy="-1"/>
<feGaussianBlur stdDeviation="1"/>
<feComposite in2="hardAlpha" operator="arithmetic" k2="-1" k3="1"/>
<feColorMatrix type="matrix" values="0 0 0 0 1 0 0 0 0 0.54902 0 0 0 0 0.356863 0 0 0 0.5 0"/>
<feBlend mode="normal" in2="shape" result="effect2_innerShadow_116_27"/>
</filter>
<linearGradient id="paint0_linear_116_27" x1="31.626" y1="10" x2="31.626" y2="43.7325" gradientUnits="userSpaceOnUse">
<stop stop-color="#FF9466"/>
<stop offset="1" stop-color="#FF4C00"/>
<stop offset="1" stop-color="#FF4C00"/>
</linearGradient>
<linearGradient id="paint1_linear_116_27" x1="31.5" y1="32" x2="31.5" y2="40" gradientUnits="userSpaceOnUse">
<stop stop-color="#FFF3AB"/>
<stop offset="1" stop-color="#FBD598"/>
</linearGradient>
</defs>
</svg>
