<svg width="45" height="51" viewBox="0 0 45 51" fill="none" xmlns="http://www.w3.org/2000/svg">
<g filter="url(#filter0_f_9_302)">
<path fill-rule="evenodd" clip-rule="evenodd" d="M29.3875 21.6118C27.9573 20.1817 26.1176 19.232 24.1234 18.8943V17.6234C24.1234 17.1929 23.9524 16.7799 23.6479 16.4755C23.3435 16.171 22.9306 16 22.5 16C22.0694 16 21.6565 16.171 21.3521 16.4755C21.0476 16.7799 20.8766 17.1929 20.8766 17.6234V18.8932C18.8823 19.231 17.0425 20.1809 15.6122 21.6111C14.1819 23.0414 13.2321 24.8812 12.8943 26.8755H11.6234C11.1929 26.8755 10.7799 27.0466 10.4755 27.351C10.171 27.6555 10 28.0684 10 28.499C10 28.9295 10.171 29.3424 10.4755 29.6469C10.7799 29.9514 11.1929 30.1224 11.6234 30.1224H12.8943C13.2324 32.1164 14.1824 33.9559 15.6126 35.386C17.0429 36.816 18.8825 37.7658 20.8766 38.1036V39.3745C20.8766 39.805 21.0476 40.218 21.3521 40.5224C21.6565 40.8269 22.0694 40.9979 22.5 40.9979C22.9306 40.9979 23.3435 40.8269 23.6479 40.5224C23.9524 40.218 24.1234 39.805 24.1234 39.3745V38.1036C26.1175 37.7658 27.9571 36.816 29.3874 35.386C30.8176 33.9559 31.7676 32.1164 32.1057 30.1224H33.3766C33.8071 30.1224 34.2201 29.9514 34.5245 29.6469C34.829 29.3424 35 28.9295 35 28.499C35 28.0684 34.829 27.6555 34.5245 27.351C34.2201 27.0466 33.8071 26.8755 33.3766 26.8755H32.1057C31.7677 24.8814 30.8178 23.0418 29.3875 21.6118Z" fill="#2D87EB" fill-opacity="0.2"/>
</g>
<path d="M12.6953 0.000984193C12.4579 0.000955522 12.2232 0.0507829 12.0063 0.14724C11.7894 0.243697 11.5952 0.384632 11.4362 0.560921C11.2773 0.737209 11.1571 0.944919 11.0835 1.1706C11.0099 1.39628 10.9846 1.6349 11.009 1.87101L13.7537 28.3482L14.1182 28.6636C14.4622 28.9692 16.4688 30.4875 22.4995 30.4875C28.5331 30.4875 30.5407 28.9732 30.8817 28.6675L31.2472 28.3472L33.9908 1.87003C34.0155 1.63381 33.9902 1.39504 33.9166 1.16922C33.843 0.943406 33.7228 0.735585 33.5637 0.559247C33.4046 0.382909 33.2102 0.241995 32.9931 0.14565C32.776 0.0493053 32.5411 -0.000317802 32.3036 1.53148e-06H12.6953V0.000984193ZM28.8544 26.9675C28.1233 27.3154 26.2582 27.9649 22.5004 27.9649C18.7201 27.9649 16.8569 27.3075 16.1494 26.9724L13.8077 4.36995C13.783 4.13373 13.8083 3.89496 13.8819 3.66915C13.9555 3.44333 14.0758 3.23551 14.2349 3.05917C14.394 2.88283 14.5884 2.74192 14.8054 2.64557C15.0225 2.54923 15.2575 2.4996 15.495 2.49992H29.5079C29.7454 2.49959 29.9802 2.54921 30.1973 2.64557C30.4143 2.74192 30.6087 2.88285 30.7677 3.05921C30.9267 3.23557 31.0469 3.4434 31.1203 3.66922C31.1938 3.89504 31.219 4.13378 31.1942 4.36995L28.8544 26.9675Z" fill="#4E9BF1"/>
<path d="M17.0024 10.3938L18.3811 25.0435C18.3811 25.0435 19.8345 25.8316 22.2529 25.8316C24.6761 25.8316 26.8665 25.0435 26.8665 25.0435L28.1784 11.0875C27.7185 11.1101 27.2557 11.1426 26.8026 11.1337C23.8497 11.0728 20.2236 10.2454 17.0024 10.3938Z" fill="#4E9BF1"/>
<defs>
<filter id="filter0_f_9_302" x="0" y="6" width="45" height="44.9979" filterUnits="userSpaceOnUse" color-interpolation-filters="sRGB">
<feFlood flood-opacity="0" result="BackgroundImageFix"/>
<feBlend mode="normal" in="SourceGraphic" in2="BackgroundImageFix" result="shape"/>
<feGaussianBlur stdDeviation="5" result="effect1_foregroundBlur_9_302"/>
</filter>
</defs>
</svg>
