<svg width="52" height="59" viewBox="0 0 52 59" fill="none" xmlns="http://www.w3.org/2000/svg">
<rect width="52" height="52" rx="15" fill="white"/>
<g filter="url(#filter0_f_116_28)">
<path d="M11 34.5C11 36.5355 11.4009 38.551 12.1799 40.4316C12.9588 42.3121 14.1005 44.0208 15.5398 45.4602C16.9792 46.8995 18.6879 48.0412 20.5684 48.8201C22.449 49.5991 24.4645 50 26.5 50C28.5355 50 30.551 49.5991 32.4316 48.8201C34.3121 48.0412 36.0208 46.8995 37.4602 45.4602C38.8995 44.0208 40.0412 42.3121 40.8201 40.4316C41.5991 38.551 42 36.5355 42 34.5C42 30.3891 40.367 26.4467 37.4602 23.5398C34.5533 20.633 30.6109 19 26.5 19C22.3891 19 18.4467 20.633 15.5398 23.5398C12.633 26.4467 11 30.3891 11 34.5Z" fill="#FFEBCD"/>
</g>
<path d="M8 26.5C8 28.9295 8.47852 31.3351 9.40823 33.5796C10.3379 35.8242 11.7006 37.8636 13.4185 39.5815C15.1364 41.2994 17.1758 42.6621 19.4204 43.5918C21.6649 44.5215 24.0705 45 26.5 45C28.9295 45 31.3351 44.5215 33.5796 43.5918C35.8242 42.6621 37.8636 41.2994 39.5815 39.5815C41.2994 37.8636 42.6621 35.8242 43.5918 33.5796C44.5215 31.3351 45 28.9295 45 26.5C45 21.5935 43.0509 16.8879 39.5815 13.4185C36.1121 9.9491 31.4065 8 26.5 8C21.5935 8 16.8879 9.9491 13.4185 13.4185C9.9491 16.8879 8 21.5935 8 26.5Z" fill="#FFF3C6"/>
<path d="M32.7718 17.4549V16.3539C32.7718 14.5869 31.0909 13.3242 29.4289 13.841L18.1461 17.3603C17.0599 17.6986 16.3203 18.7176 16.3203 19.8732V36.2322C16.3203 37.8374 17.7091 39.0266 19.2072 38.8418H32.6415C34.8686 38.8418 36.6819 36.976 36.6819 34.6858V21.6066C36.6819 19.3606 34.9401 17.5242 32.7718 17.4549ZM23.506 31.862L27.912 30.242C28.5675 30.0004 29.2903 30.3471 29.5277 31.0131C29.7651 31.6792 29.4247 32.4146 28.7692 32.6562L24.3632 34.2761C24.2225 34.3286 24.0775 34.3538 23.9346 34.3538C23.4178 34.3538 22.9345 34.0282 22.7475 33.5071C22.5122 32.8369 22.8526 32.1015 23.506 31.862ZM34.5199 34.6858C34.5199 35.7658 33.6773 36.644 32.6415 36.644H26.3992L30.9459 35.2258C32.0322 34.8875 32.7718 33.8685 32.7718 32.7129V19.6568C33.7467 19.7261 34.5178 20.575 34.5178 21.6066V34.6858H34.5199Z" fill="#FFA21F"/>
<path d="M36.6819 24.7204V21.6066C36.6819 19.3605 34.9401 17.5242 32.7718 17.4527V16.3518C32.7718 14.5848 31.0909 13.322 29.4289 13.8389L18.1461 17.3582C17.0599 17.6965 16.3203 18.7155 16.3203 19.8711V36.2301C16.3203 36.4843 16.3581 36.7259 16.4233 36.9549C17.5425 37.1739 18.6803 37.2844 19.8207 37.2848C24.9473 37.2848 29.5613 35.0997 32.7739 31.614V19.6568C33.7488 19.7261 34.5199 20.5749 34.5199 21.6066V29.3764C35.4675 27.9402 36.1962 26.371 36.6819 24.7204ZM28.7692 32.654L24.3632 34.274C24.2225 34.3265 24.0775 34.3517 23.9346 34.3517C23.4178 34.3517 22.9345 34.026 22.7475 33.505C22.5101 32.8389 22.8505 32.1036 23.506 31.8619L27.912 30.242C28.5675 30.0004 29.2903 30.3471 29.5277 31.0131C29.763 31.6791 29.4247 32.4145 28.7692 32.654Z" fill="#FEB54E"/>
<path d="M32.509 15.1983C31.9732 14.089 30.6978 13.446 29.4309 13.841L18.1481 17.3603C17.0618 17.6986 16.3223 18.7176 16.3223 19.8732V31.0236C24.8779 30.3954 31.7316 23.672 32.509 15.1983Z" fill="#FFC26B"/>
<path d="M26.5421 14.7402L18.1461 17.3603C17.0599 17.6986 16.3203 18.7176 16.3203 19.8732V23.9325C20.8523 22.3777 24.5439 19.0306 26.5421 14.7402Z" fill="#FFCE89"/>
<g filter="url(#filter1_d_116_28)">
<path d="M23 33.5L29 31" stroke="url(#paint0_linear_116_28)" stroke-width="3" stroke-linecap="round" stroke-linejoin="round"/>
</g>
<defs>
<filter id="filter0_f_116_28" x="2" y="10" width="49" height="49" filterUnits="userSpaceOnUse" color-interpolation-filters="sRGB">
<feFlood flood-opacity="0" result="BackgroundImageFix"/>
<feBlend mode="normal" in="SourceGraphic" in2="BackgroundImageFix" result="shape"/>
<feGaussianBlur stdDeviation="4.5" result="effect1_foregroundBlur_116_28"/>
</filter>
<filter id="filter1_d_116_28" x="19.4995" y="29.4996" width="13.001" height="9.50073" filterUnits="userSpaceOnUse" color-interpolation-filters="sRGB">
<feFlood flood-opacity="0" result="BackgroundImageFix"/>
<feColorMatrix in="SourceAlpha" type="matrix" values="0 0 0 0 0 0 0 0 0 0 0 0 0 0 0 0 0 0 127 0" result="hardAlpha"/>
<feOffset dy="2"/>
<feGaussianBlur stdDeviation="1"/>
<feComposite in2="hardAlpha" operator="out"/>
<feColorMatrix type="matrix" values="0 0 0 0 1 0 0 0 0 0.480787 0 0 0 0 0.00151367 0 0 0 0.65 0"/>
<feBlend mode="normal" in2="BackgroundImageFix" result="effect1_dropShadow_116_28"/>
<feBlend mode="normal" in="SourceGraphic" in2="effect1_dropShadow_116_28" result="shape"/>
</filter>
<linearGradient id="paint0_linear_116_28" x1="30.875" y1="30.5" x2="26.6517" y2="36.1518" gradientUnits="userSpaceOnUse">
<stop stop-color="#FFF7AF"/>
<stop offset="1" stop-color="#FFD057"/>
</linearGradient>
</defs>
</svg>
