<svg width="54" height="59" viewBox="0 0 54 59" fill="none" xmlns="http://www.w3.org/2000/svg">
<rect x="1" width="52" height="52" rx="15" fill="white"/>
<g filter="url(#filter0_f_116_29)">
<path fill-rule="evenodd" clip-rule="evenodd" d="M36.3671 29.6118C34.4219 28.1817 31.9199 27.232 29.2079 26.8943V25.6234C29.2079 25.1929 28.9753 24.7799 28.5612 24.4755C28.1471 24.171 27.5856 24 27 24C26.4144 24 25.8529 24.171 25.4388 24.4755C25.0247 24.7799 24.7921 25.1929 24.7921 25.6234V26.8932C22.0799 27.231 19.5777 28.1809 17.6326 29.6111C15.6874 31.0414 14.3956 32.8812 13.9362 34.8755H12.2079C11.6223 34.8755 11.0607 35.0466 10.6467 35.351C10.2326 35.6555 10 36.0684 10 36.499C10 36.9295 10.2326 37.3424 10.6467 37.6469C11.0607 37.9514 11.6223 38.1224 12.2079 38.1224H13.9362C14.3961 40.1164 15.6881 41.9559 17.6332 43.386C19.5783 44.816 22.0802 45.7658 24.7921 46.1036V47.3745C24.7921 47.805 25.0247 48.218 25.4388 48.5224C25.8529 48.8269 26.4144 48.9979 27 48.9979C27.5856 48.9979 28.1471 48.8269 28.5612 48.5224C28.9753 48.218 29.2079 47.805 29.2079 47.3745V46.1036C31.9198 45.7658 34.4217 44.816 36.3668 43.386C38.3119 41.9559 39.6039 40.1164 40.0638 38.1224H41.7921C42.3777 38.1224 42.9393 37.9514 43.3533 37.6469C43.7674 37.3424 44 36.9295 44 36.499C44 36.0684 43.7674 35.6555 43.3533 35.351C42.9393 35.0466 42.3777 34.8755 41.7921 34.8755H40.0638C39.6041 32.8814 38.3122 31.0418 36.3671 29.6118Z" fill="#2D87EB" fill-opacity="0.45"/>
</g>
<path opacity="0.91" d="M37.6667 42H16.3333C13.4 42 11 39.6 11 36.6667V15.3333C11 12.4 13.4 10 16.3333 10H37.6667C40.6 10 43 12.4 43 15.3333V36.6667C43 39.6 40.6 42 37.6667 42Z" fill="url(#paint0_linear_116_29)"/>
<g opacity="0.55" filter="url(#filter1_d_116_29)">
<path d="M18 26.9952C18 26.0026 18.8047 25.1979 19.7973 25.1979C20.7899 25.1979 21.5946 26.0026 21.5946 26.9952V35H18V26.9952ZM25.1892 23.2973C25.1892 22.3047 25.9939 21.5 26.9865 21.5C27.9791 21.5 28.7838 22.3047 28.7838 23.2973V35H25.1892V23.2973ZM32.4054 26.2973C32.4054 25.3047 33.2101 24.5 34.2027 24.5C35.1953 24.5 36 25.3047 36 26.2973V35H32.4054V26.2973Z" fill="white"/>
</g>
<g filter="url(#filter2_d_116_29)">
<path d="M19 21L24.7192 16.0313C25.0953 15.7045 25.6547 15.7045 26.0308 16.0313L30.9164 20.2758C31.3628 20.6636 32.0465 20.5815 32.3883 20.0989L36 15" stroke="url(#paint1_linear_116_29)" stroke-width="2.5" stroke-linecap="round" stroke-linejoin="round"/>
</g>
<defs>
<filter id="filter0_f_116_29" x="0" y="14" width="54" height="44.9979" filterUnits="userSpaceOnUse" color-interpolation-filters="sRGB">
<feFlood flood-opacity="0" result="BackgroundImageFix"/>
<feBlend mode="normal" in="SourceGraphic" in2="BackgroundImageFix" result="shape"/>
<feGaussianBlur stdDeviation="5" result="effect1_foregroundBlur_116_29"/>
</filter>
<filter id="filter1_d_116_29" x="17.3" y="21.5" width="21.4" height="17.2" filterUnits="userSpaceOnUse" color-interpolation-filters="sRGB">
<feFlood flood-opacity="0" result="BackgroundImageFix"/>
<feColorMatrix in="SourceAlpha" type="matrix" values="0 0 0 0 0 0 0 0 0 0 0 0 0 0 0 0 0 0 127 0" result="hardAlpha"/>
<feOffset dx="1" dy="2"/>
<feGaussianBlur stdDeviation="0.85"/>
<feComposite in2="hardAlpha" operator="out"/>
<feColorMatrix type="matrix" values="0 0 0 0 0 0 0 0 0 0.505882 0 0 0 0 1 0 0 0 1 0"/>
<feBlend mode="normal" in2="BackgroundImageFix" result="effect1_dropShadow_116_29"/>
<feBlend mode="normal" in="SourceGraphic" in2="effect1_dropShadow_116_29" result="shape"/>
</filter>
<filter id="filter2_d_116_29" x="15.35" y="11.3499" width="26.3" height="15.3001" filterUnits="userSpaceOnUse" color-interpolation-filters="sRGB">
<feFlood flood-opacity="0" result="BackgroundImageFix"/>
<feColorMatrix in="SourceAlpha" type="matrix" values="0 0 0 0 0 0 0 0 0 0 0 0 0 0 0 0 0 0 127 0" result="hardAlpha"/>
<feOffset dx="1" dy="1"/>
<feGaussianBlur stdDeviation="1.7"/>
<feComposite in2="hardAlpha" operator="out"/>
<feColorMatrix type="matrix" values="0 0 0 0 0.11371 0 0 0 0 0.502536 0 0 0 0 0.933626 0 0 0 0.62 0"/>
<feBlend mode="normal" in2="BackgroundImageFix" result="effect1_dropShadow_116_29"/>
<feBlend mode="normal" in="SourceGraphic" in2="effect1_dropShadow_116_29" result="shape"/>
</filter>
<linearGradient id="paint0_linear_116_29" x1="27" y1="10" x2="27" y2="42" gradientUnits="userSpaceOnUse">
<stop stop-color="#7BB5F6"/>
<stop offset="1" stop-color="#157DEF"/>
</linearGradient>
<linearGradient id="paint1_linear_116_29" x1="38.125" y1="15" x2="30.2623" y2="27.7768" gradientUnits="userSpaceOnUse">
<stop stop-color="#FFF7AF"/>
<stop offset="1" stop-color="#FFD360"/>
</linearGradient>
</defs>
</svg>
