<svg width="46" height="41" viewBox="0 0 46 41" fill="none" xmlns="http://www.w3.org/2000/svg">
<g filter="url(#filter0_f_9_316)">
<path d="M12.4944 25.6068H33.5065C33.9157 25.6068 34.2656 25.4638 34.5591 25.1778C34.7025 25.0401 34.8153 24.8773 34.8909 24.6989C34.9665 24.5205 35.0035 24.3299 34.9997 24.1381C34.9997 23.7315 34.8535 23.3844 34.5591 23.0984C34.426 22.962 34.2634 22.8533 34.082 22.7794C33.9006 22.7055 33.7045 22.668 33.5065 22.6694H33.3732C33.089 20.6942 32.2716 18.9482 30.9201 17.4321C29.5685 15.916 27.9161 14.8815 25.96 14.3267V14.3009C25.9961 14.1278 26.0137 13.9977 26.0137 13.9107C26.0137 13.0967 25.7202 12.4075 25.1343 11.845C24.5473 11.2825 23.8364 11.0009 23.0005 11C22.1654 11 21.4582 11.2808 20.8805 11.845C20.3038 12.4093 20.015 13.0975 20.0141 13.9107C20.0141 13.9968 20.0233 14.1364 20.0409 14.3267C18.0848 14.8815 16.4315 15.916 15.0809 17.4321C13.7293 18.9482 12.9119 20.6942 12.6277 22.6694H12.4944C12.299 22.6694 12.1074 22.7082 11.9204 22.7866C11.7343 22.865 11.5742 22.9692 11.4409 23.0984C11.1569 23.3852 10.9996 23.7611 11.0002 24.151C11.0002 24.5499 11.1474 24.8918 11.4409 25.1778C11.7343 25.4638 12.0852 25.6068 12.4934 25.6068H12.4944ZM22.9995 12.4566C23.4087 12.4566 23.7596 12.5996 24.053 12.8856C24.3455 13.1716 24.4927 13.5144 24.4937 13.9115V13.9899L24.4668 14.0158C23.9811 13.9477 23.4907 13.9132 22.9995 13.9124C22.5086 13.9124 22.0185 13.9469 21.5332 14.0158L21.5063 13.9899V13.9124C21.5063 13.5127 21.6535 13.1716 21.947 12.8856C22.0802 12.7493 22.2428 12.6407 22.4242 12.5668C22.6055 12.4929 22.8015 12.4554 22.9995 12.4566ZM16.6805 20.279C17.1553 19.5226 17.7746 18.8532 18.5079 18.3038C19.2349 17.7547 20.0738 17.348 20.974 17.1082C21.007 17.0916 21.0439 17.0828 21.0814 17.0824C21.1238 17.0672 21.1685 17.0585 21.2138 17.0565C21.4267 17.0565 21.61 17.1297 21.7609 17.2779C21.8347 17.3484 21.8928 17.4318 21.9317 17.5234C21.9706 17.6149 21.9897 17.7127 21.9877 17.8111C21.989 17.9278 21.9618 18.0433 21.9081 18.1488C21.8574 18.2475 21.7829 18.3339 21.6904 18.4014C21.5979 18.469 21.4899 18.5157 21.3749 18.5381C19.9639 18.9418 18.7598 19.8108 17.9886 20.9819C17.9528 21.0684 17.8989 21.1474 17.8301 21.2144C17.7613 21.2814 17.6789 21.335 17.5877 21.3721C17.4947 21.4076 17.3948 21.4252 17.2943 21.4238C17.1948 21.4262 17.0958 21.4091 17.0039 21.3734C16.9121 21.3378 16.8293 21.2845 16.761 21.2171C16.6904 21.1478 16.6352 21.0661 16.5987 20.9768C16.5621 20.8875 16.5449 20.7923 16.5481 20.6968C16.5481 20.5409 16.5916 20.4022 16.6805 20.2808V20.279ZM33.5065 27.0626H12.4944C12.0852 27.0626 11.7353 27.2056 11.4418 27.4916C11.2982 27.6292 11.1853 27.792 11.1095 27.9704C11.0337 28.1488 10.9966 28.3394 11.0002 28.5313C11.0002 28.9387 11.1465 29.285 11.4409 29.571C11.574 29.7074 11.7366 29.8161 11.918 29.89C12.0993 29.9639 12.2954 30.0014 12.4934 30H33.5056C33.9148 30 34.2647 29.857 34.5582 29.571C34.7016 29.4332 34.8144 29.2705 34.89 29.092C34.9656 28.9136 35.0026 28.723 34.9988 28.5313C34.9988 28.1247 34.8525 27.7775 34.5582 27.4916C34.425 27.3552 34.2625 27.2465 34.0811 27.1725C33.8997 27.0986 33.7036 27.0611 33.5056 27.0626H33.5065Z" fill="#6DD411"/>
</g>
<path d="M9.99249 24.9883H38.0087C38.5543 24.9883 39.0208 24.7926 39.4121 24.4012C39.6034 24.2127 39.7537 23.99 39.8546 23.7458C39.9554 23.5017 40.0047 23.2409 39.9996 22.9785C39.9996 22.4221 39.8046 21.9471 39.4121 21.5557C39.2346 21.3691 39.0179 21.2203 38.776 21.1192C38.5342 21.018 38.2727 20.9667 38.0087 20.9687H37.831C37.452 18.2658 36.3622 15.8764 34.5601 13.8018C32.758 11.7272 30.5548 10.3115 27.9467 9.55238V9.51701C27.9948 9.28008 28.0183 9.10209 28.0183 8.98304C28.0183 7.86911 27.627 6.9261 26.8457 6.15636C26.0631 5.38663 25.1152 5.00118 24.0006 5C22.8873 5 21.9443 5.38428 21.1741 6.15636C20.4051 6.92845 20.02 7.87028 20.0187 8.98304C20.0187 9.10091 20.0311 9.29187 20.0545 9.55238C17.4465 10.3115 15.242 11.7272 13.4411 13.8018C11.6391 15.8764 10.5492 18.2658 10.1702 20.9687H9.99249C9.73206 20.9687 9.47656 21.0217 9.22723 21.129C8.97913 21.2363 8.7656 21.3789 8.58786 21.5557C8.20921 21.9482 7.99941 22.4625 8.00033 22.9962C8.00033 23.5419 8.19658 24.0099 8.58786 24.4012C8.97913 24.7926 9.44693 24.9883 9.99126 24.9883H9.99249ZM23.9994 6.99329C24.5449 6.99329 25.0127 7.18896 25.404 7.58031C25.794 7.97166 25.9903 8.44081 25.9915 8.98421V9.09148L25.9557 9.12684C25.3082 9.03371 24.6543 8.98643 23.9994 8.98539C23.3449 8.98538 22.6913 9.03267 22.0442 9.12684L22.0084 9.09148V8.98539C22.0084 8.43845 22.2047 7.97166 22.596 7.58031C22.7736 7.39384 22.9904 7.2452 23.2322 7.14406C23.474 7.04292 23.7354 6.99155 23.9994 6.99329ZM15.574 17.6976C16.2071 16.6625 17.0328 15.7465 18.0105 14.9947C18.9799 14.2433 20.0984 13.6867 21.2987 13.3586C21.3427 13.3359 21.3919 13.3238 21.4419 13.3232C21.4984 13.3025 21.558 13.2906 21.6184 13.2879C21.9023 13.2879 22.1467 13.3881 22.3479 13.5908C22.4463 13.6873 22.5237 13.8015 22.5756 13.9267C22.6275 14.052 22.6529 14.1858 22.6503 14.3205C22.652 14.4802 22.6157 14.6382 22.5441 14.7825C22.4765 14.9176 22.3771 15.0359 22.2538 15.1283C22.1305 15.2207 21.9866 15.2847 21.8332 15.3153C19.9519 15.8678 18.3465 17.0569 17.3181 18.6595C17.2704 18.7778 17.1986 18.8859 17.1068 18.9776C17.0151 19.0692 16.9052 19.1426 16.7836 19.1935C16.6595 19.242 16.5264 19.2661 16.3924 19.2642C16.2597 19.2675 16.1278 19.244 16.0053 19.1952C15.8827 19.1465 15.7724 19.0736 15.6814 18.9813C15.5872 18.8864 15.5136 18.7746 15.4649 18.6524C15.4162 18.5302 15.3933 18.4 15.3975 18.2693C15.3975 18.056 15.4555 17.8662 15.574 17.7V17.6976ZM38.0087 26.9804H9.99249C9.44693 26.9804 8.98036 27.176 8.58909 27.5674C8.39762 27.7558 8.24704 27.9785 8.146 28.2226C8.04496 28.4668 7.99545 28.7277 8.00033 28.9902C8.00033 29.5477 8.19535 30.0216 8.58786 30.4129C8.76536 30.5996 8.98212 30.7483 9.22395 30.8495C9.46579 30.9506 9.72725 31.0019 9.99126 30.9999H38.0075C38.553 30.9999 39.0196 30.8043 39.4109 30.4129C39.6021 30.2244 39.7525 30.0017 39.8533 29.7575C39.9541 29.5134 40.0035 29.2526 39.9984 28.9902C39.9984 28.4338 39.8034 27.9587 39.4109 27.5674C39.2334 27.3808 39.0166 27.232 38.7748 27.1308C38.533 27.0297 38.2715 26.9784 38.0075 26.9804H38.0087Z" fill="url(#paint0_linear_9_316)"/>
<g filter="url(#filter1_d_9_316)">
<path d="M15 20C15.4 18.4 17.56 14.96 23 14" stroke="url(#paint1_linear_9_316)" stroke-width="2.8" stroke-linecap="round"/>
</g>
<defs>
<filter id="filter0_f_9_316" x="0.6" y="0.6" width="44.8" height="39.8" filterUnits="userSpaceOnUse" color-interpolation-filters="sRGB">
<feFlood flood-opacity="0" result="BackgroundImageFix"/>
<feBlend mode="normal" in="SourceGraphic" in2="BackgroundImageFix" result="shape"/>
<feGaussianBlur stdDeviation="5.2" result="effect1_foregroundBlur_9_316"/>
</filter>
<filter id="filter1_d_9_316" x="11.5996" y="12.5998" width="14.8005" height="12.8005" filterUnits="userSpaceOnUse" color-interpolation-filters="sRGB">
<feFlood flood-opacity="0" result="BackgroundImageFix"/>
<feColorMatrix in="SourceAlpha" type="matrix" values="0 0 0 0 0 0 0 0 0 0 0 0 0 0 0 0 0 0 127 0" result="hardAlpha"/>
<feOffset dy="2"/>
<feGaussianBlur stdDeviation="1"/>
<feComposite in2="hardAlpha" operator="out"/>
<feColorMatrix type="matrix" values="0 0 0 0 0.309804 0 0 0 0 0.686275 0 0 0 0 0.0823529 0 0 0 0.7 0"/>
<feBlend mode="normal" in2="BackgroundImageFix" result="effect1_dropShadow_9_316"/>
<feBlend mode="normal" in="SourceGraphic" in2="effect1_dropShadow_9_316" result="shape"/>
</filter>
<linearGradient id="paint0_linear_9_316" x1="24" y1="5" x2="24" y2="31" gradientUnits="userSpaceOnUse">
<stop stop-color="#BAFF88"/>
<stop offset="0.52" stop-color="#5BC719"/>
<stop offset="1" stop-color="#5BC719"/>
</linearGradient>
<linearGradient id="paint1_linear_9_316" x1="24" y1="14" x2="15.5" y2="20.5" gradientUnits="userSpaceOnUse">
<stop stop-color="#FFF7AF"/>
<stop offset="1" stop-color="#FFE193"/>
</linearGradient>
</defs>
</svg>
