<svg width="52" height="52" viewBox="0 0 52 52" fill="none" xmlns="http://www.w3.org/2000/svg">
<rect width="52" height="52" rx="15" fill="white"/>
<g filter="url(#filter0_f_116_30)">
<path d="M14.4944 33.6068H35.5065C35.9157 33.6068 36.2656 33.4638 36.5591 33.1778C36.7025 33.0401 36.8153 32.8773 36.8909 32.6989C36.9665 32.5205 37.0035 32.3299 36.9997 32.1381C36.9997 31.7315 36.8535 31.3844 36.5591 31.0984C36.426 30.962 36.2634 30.8533 36.082 30.7794C35.9006 30.7055 35.7045 30.668 35.5065 30.6694H35.3732C35.089 28.6942 34.2716 26.9482 32.9201 25.4321C31.5685 23.916 29.9161 22.8815 27.96 22.3267V22.3009C27.9961 22.1278 28.0137 21.9977 28.0137 21.9107C28.0137 21.0967 27.7202 20.4075 27.1343 19.845C26.5473 19.2825 25.8364 19.0009 25.0005 19C24.1654 19 23.4582 19.2808 22.8805 19.845C22.3038 20.4093 22.015 21.0975 22.0141 21.9107C22.0141 21.9968 22.0233 22.1364 22.0409 22.3267C20.0848 22.8815 18.4315 23.916 17.0809 25.4321C15.7293 26.9482 14.9119 28.6942 14.6277 30.6694H14.4944C14.299 30.6694 14.1074 30.7082 13.9204 30.7866C13.7343 30.865 13.5742 30.9692 13.4409 31.0984C13.1569 31.3852 12.9996 31.7611 13.0002 32.151C13.0002 32.5499 13.1474 32.8918 13.4409 33.1778C13.7343 33.4638 14.0852 33.6068 14.4934 33.6068H14.4944ZM24.9995 20.4566C25.4087 20.4566 25.7596 20.5996 26.053 20.8856C26.3455 21.1716 26.4927 21.5144 26.4937 21.9115V21.9899L26.4668 22.0158C25.9811 21.9477 25.4907 21.9132 24.9995 21.9124C24.5086 21.9124 24.0185 21.9469 23.5332 22.0158L23.5063 21.9899V21.9124C23.5063 21.5127 23.6535 21.1716 23.947 20.8856C24.0802 20.7493 24.2428 20.6407 24.4242 20.5668C24.6055 20.4929 24.8015 20.4554 24.9995 20.4566ZM18.6805 28.279C19.1553 27.5226 19.7746 26.8532 20.5079 26.3038C21.2349 25.7547 22.0738 25.348 22.974 25.1082C23.007 25.0916 23.0439 25.0828 23.0814 25.0824C23.1238 25.0672 23.1685 25.0585 23.2138 25.0565C23.4267 25.0565 23.61 25.1297 23.7609 25.2779C23.8347 25.3484 23.8928 25.4318 23.9317 25.5234C23.9706 25.6149 23.9897 25.7127 23.9877 25.8111C23.989 25.9278 23.9618 26.0433 23.9081 26.1488C23.8574 26.2475 23.7829 26.3339 23.6904 26.4014C23.5979 26.469 23.4899 26.5157 23.3749 26.5381C21.9639 26.9418 20.7598 27.8108 19.9886 28.9819C19.9528 29.0684 19.8989 29.1474 19.8301 29.2144C19.7613 29.2814 19.6789 29.335 19.5877 29.3721C19.4947 29.4076 19.3948 29.4252 19.2943 29.4238C19.1948 29.4262 19.0958 29.4091 19.0039 29.3734C18.9121 29.3378 18.8293 29.2845 18.761 29.2171C18.6904 29.1478 18.6352 29.0661 18.5987 28.9768C18.5621 28.8875 18.5449 28.7923 18.5481 28.6968C18.5481 28.5409 18.5916 28.4022 18.6805 28.2808V28.279ZM35.5065 35.0626H14.4944C14.0852 35.0626 13.7353 35.2056 13.4418 35.4916C13.2982 35.6292 13.1853 35.792 13.1095 35.9704C13.0337 36.1488 12.9966 36.3394 13.0002 36.5313C13.0002 36.9387 13.1465 37.285 13.4409 37.571C13.574 37.7074 13.7366 37.8161 13.918 37.89C14.0993 37.9639 14.2954 38.0014 14.4934 38H35.5056C35.9148 38 36.2647 37.857 36.5582 37.571C36.7016 37.4332 36.8144 37.2705 36.89 37.092C36.9656 36.9136 37.0026 36.723 36.9988 36.5313C36.9988 36.1247 36.8525 35.7775 36.5582 35.4916C36.425 35.3552 36.2625 35.2465 36.0811 35.1725C35.8997 35.0986 35.7036 35.0611 35.5056 35.0626H35.5065Z" fill="#6DD411"/>
</g>
<path d="M11.9925 32.9883H40.0087C40.5543 32.9883 41.0208 32.7926 41.4121 32.4012C41.6034 32.2127 41.7537 31.99 41.8546 31.7458C41.9554 31.5017 42.0047 31.2409 41.9996 30.9785C41.9996 30.4221 41.8046 29.9471 41.4121 29.5557C41.2346 29.3691 41.0179 29.2203 40.776 29.1192C40.5342 29.018 40.2727 28.9667 40.0087 28.9687H39.831C39.452 26.2658 38.3622 23.8764 36.5601 21.8018C34.758 19.7272 32.5548 18.3115 29.9467 17.5524V17.517C29.9948 17.2801 30.0183 17.1021 30.0183 16.983C30.0183 15.8691 29.627 14.9261 28.8457 14.1564C28.0631 13.3866 27.1152 13.0012 26.0006 13C24.8873 13 23.9443 13.3843 23.1741 14.1564C22.4051 14.9285 22.02 15.8703 22.0187 16.983C22.0187 17.1009 22.0311 17.2919 22.0545 17.5524C19.4465 18.3115 17.242 19.7272 15.4411 21.8018C13.6391 23.8764 12.5492 26.2658 12.1702 28.9687H11.9925C11.7321 28.9687 11.4766 29.0217 11.2272 29.129C10.9791 29.2363 10.7656 29.3789 10.5879 29.5557C10.2092 29.9482 9.99941 30.4625 10.0003 30.9962C10.0003 31.5419 10.1966 32.0099 10.5879 32.4012C10.9791 32.7926 11.4469 32.9883 11.9913 32.9883H11.9925ZM25.9994 14.9933C26.5449 14.9933 27.0127 15.189 27.404 15.5803C27.794 15.9717 27.9903 16.4408 27.9915 16.9842V17.0915L27.9557 17.1268C27.3082 17.0337 26.6543 16.9864 25.9994 16.9854C25.3449 16.9854 24.6913 17.0327 24.0442 17.1268L24.0084 17.0915V16.9854C24.0084 16.4384 24.2047 15.9717 24.596 15.5803C24.7736 15.3938 24.9904 15.2452 25.2322 15.1441C25.474 15.0429 25.7354 14.9915 25.9994 14.9933ZM17.574 25.6976C18.2071 24.6625 19.0328 23.7465 20.0105 22.9947C20.9799 22.2433 22.0984 21.6867 23.2987 21.3586C23.3427 21.3359 23.3919 21.3238 23.4419 21.3232C23.4984 21.3025 23.558 21.2906 23.6184 21.2879C23.9023 21.2879 24.1467 21.3881 24.3479 21.5908C24.4463 21.6873 24.5237 21.8015 24.5756 21.9267C24.6275 22.052 24.6529 22.1858 24.6503 22.3205C24.652 22.4802 24.6157 22.6382 24.5441 22.7825C24.4765 22.9176 24.3771 23.0359 24.2538 23.1283C24.1305 23.2207 23.9866 23.2847 23.8332 23.3153C21.9519 23.8678 20.3465 25.0569 19.3181 26.6595C19.2704 26.7778 19.1986 26.8859 19.1068 26.9776C19.0151 27.0692 18.9052 27.1426 18.7836 27.1935C18.6595 27.242 18.5264 27.2661 18.3924 27.2642C18.2597 27.2675 18.1278 27.244 18.0053 27.1952C17.8827 27.1465 17.7724 27.0736 17.6814 26.9813C17.5872 26.8864 17.5136 26.7746 17.4649 26.6524C17.4162 26.5302 17.3933 26.4 17.3975 26.2693C17.3975 26.056 17.4555 25.8662 17.574 25.7V25.6976ZM40.0087 34.9804H11.9925C11.4469 34.9804 10.9804 35.176 10.5891 35.5674C10.3976 35.7558 10.247 35.9785 10.146 36.2226C10.045 36.4668 9.99545 36.7277 10.0003 36.9902C10.0003 37.5477 10.1953 38.0216 10.5879 38.4129C10.7654 38.5996 10.9821 38.7483 11.224 38.8495C11.4658 38.9506 11.7273 39.0019 11.9913 38.9999H40.0075C40.553 38.9999 41.0196 38.8043 41.4109 38.4129C41.6021 38.2244 41.7525 38.0017 41.8533 37.7575C41.9541 37.5134 42.0035 37.2526 41.9984 36.9902C41.9984 36.4338 41.8034 35.9587 41.4109 35.5674C41.2334 35.3808 41.0166 35.232 40.7748 35.1308C40.533 35.0297 40.2715 34.9784 40.0075 34.9804H40.0087Z" fill="url(#paint0_linear_116_30)"/>
<g filter="url(#filter1_d_116_30)">
<path d="M17 28C17.4 26.4 19.56 22.96 25 22" stroke="url(#paint1_linear_116_30)" stroke-width="2.8" stroke-linecap="round"/>
</g>
<defs>
<filter id="filter0_f_116_30" x="2.6" y="8.6" width="44.8" height="39.8" filterUnits="userSpaceOnUse" color-interpolation-filters="sRGB">
<feFlood flood-opacity="0" result="BackgroundImageFix"/>
<feBlend mode="normal" in="SourceGraphic" in2="BackgroundImageFix" result="shape"/>
<feGaussianBlur stdDeviation="5.2" result="effect1_foregroundBlur_116_30"/>
</filter>
<filter id="filter1_d_116_30" x="13.5996" y="20.5998" width="14.8005" height="12.8005" filterUnits="userSpaceOnUse" color-interpolation-filters="sRGB">
<feFlood flood-opacity="0" result="BackgroundImageFix"/>
<feColorMatrix in="SourceAlpha" type="matrix" values="0 0 0 0 0 0 0 0 0 0 0 0 0 0 0 0 0 0 127 0" result="hardAlpha"/>
<feOffset dy="2"/>
<feGaussianBlur stdDeviation="1"/>
<feComposite in2="hardAlpha" operator="out"/>
<feColorMatrix type="matrix" values="0 0 0 0 0.309804 0 0 0 0 0.686275 0 0 0 0 0.0823529 0 0 0 0.7 0"/>
<feBlend mode="normal" in2="BackgroundImageFix" result="effect1_dropShadow_116_30"/>
<feBlend mode="normal" in="SourceGraphic" in2="effect1_dropShadow_116_30" result="shape"/>
</filter>
<linearGradient id="paint0_linear_116_30" x1="26" y1="13" x2="26" y2="39" gradientUnits="userSpaceOnUse">
<stop stop-color="#BAFF88"/>
<stop offset="0.52" stop-color="#5BC719"/>
<stop offset="1" stop-color="#5BC719"/>
</linearGradient>
<linearGradient id="paint1_linear_116_30" x1="26" y1="22" x2="17.5" y2="28.5" gradientUnits="userSpaceOnUse">
<stop stop-color="#FFF7AF"/>
<stop offset="1" stop-color="#FFE193"/>
</linearGradient>
</defs>
</svg>
