<svg width="52" height="63" viewBox="0 0 52 63" fill="none" xmlns="http://www.w3.org/2000/svg">
<rect width="52" height="52" rx="15" fill="white"/>
<g filter="url(#filter0_f_116_31)">
<path fill-rule="evenodd" clip-rule="evenodd" d="M33.3875 33.6118C31.9573 32.1817 30.1176 31.232 28.1234 30.8943V29.6234C28.1234 29.1929 27.9524 28.7799 27.6479 28.4755C27.3435 28.171 26.9306 28 26.5 28C26.0694 28 25.6565 28.171 25.3521 28.4755C25.0476 28.7799 24.8766 29.1929 24.8766 29.6234V30.8932C22.8823 31.231 21.0425 32.1809 19.6122 33.6111C18.1819 35.0414 17.2321 36.8812 16.8943 38.8755H15.6234C15.1929 38.8755 14.7799 39.0466 14.4755 39.351C14.171 39.6555 14 40.0684 14 40.499C14 40.9295 14.171 41.3424 14.4755 41.6469C14.7799 41.9514 15.1929 42.1224 15.6234 42.1224H16.8943C17.2324 44.1164 18.1824 45.9559 19.6126 47.386C21.0429 48.816 22.8825 49.7658 24.8766 50.1036V51.3745C24.8766 51.805 25.0476 52.218 25.3521 52.5224C25.6565 52.8269 26.0694 52.9979 26.5 52.9979C26.9306 52.9979 27.3435 52.8269 27.6479 52.5224C27.9524 52.218 28.1234 51.805 28.1234 51.3745V50.1036C30.1175 49.7658 31.9571 48.816 33.3874 47.386C34.8176 45.9559 35.7676 44.1164 36.1057 42.1224H37.3766C37.8071 42.1224 38.2201 41.9514 38.5245 41.6469C38.829 41.3424 39 40.9295 39 40.499C39 40.0684 38.829 39.6555 38.5245 39.351C38.2201 39.0466 37.8071 38.8755 37.3766 38.8755H36.1057C35.7677 36.8814 34.8178 35.0418 33.3875 33.6118Z" fill="#2D87EB" fill-opacity="0.2"/>
</g>
<path d="M16.6953 12.001C16.4579 12.001 16.2232 12.0508 16.0063 12.1472C15.7894 12.2437 15.5952 12.3846 15.4362 12.5609C15.2773 12.7372 15.1571 12.9449 15.0835 13.1706C15.0099 13.3963 14.9846 13.6349 15.009 13.871L17.7537 40.3482L18.1182 40.6636C18.4622 40.9692 20.4688 42.4875 26.4995 42.4875C32.5331 42.4875 34.5407 40.9732 34.8817 40.6675L35.2472 40.3472L37.9908 13.87C38.0155 13.6338 37.9902 13.395 37.9166 13.1692C37.843 12.9434 37.7228 12.7356 37.5637 12.5592C37.4046 12.3829 37.2102 12.242 36.9931 12.1457C36.776 12.0493 36.5411 11.9997 36.3036 12H16.6953V12.001ZM32.8544 38.9675C32.1233 39.3154 30.2582 39.9649 26.5004 39.9649C22.7201 39.9649 20.8569 39.3075 20.1494 38.9724L17.8077 16.37C17.783 16.1337 17.8083 15.895 17.8819 15.6691C17.9555 15.4433 18.0758 15.2355 18.2349 15.0592C18.394 14.8828 18.5884 14.7419 18.8054 14.6456C19.0225 14.5492 19.2575 14.4996 19.495 14.4999H33.5079C33.7454 14.4996 33.9802 14.5492 34.1973 14.6456C34.4143 14.7419 34.6087 14.8829 34.7677 15.0592C34.9267 15.2356 35.0469 15.4434 35.1203 15.6692C35.1938 15.895 35.219 16.1338 35.1942 16.37L32.8544 38.9675Z" fill="#4E9BF1"/>
<path d="M21.0024 22.3938L22.3811 37.0435C22.3811 37.0435 23.8345 37.8316 26.2529 37.8316C28.6761 37.8316 30.8665 37.0435 30.8665 37.0435L32.1784 23.0875C31.7185 23.1101 31.2557 23.1426 30.8026 23.1337C27.8497 23.0728 24.2236 22.2454 21.0024 22.3938Z" fill="#4E9BF1"/>
<defs>
<filter id="filter0_f_116_31" x="4" y="18" width="45" height="44.9979" filterUnits="userSpaceOnUse" color-interpolation-filters="sRGB">
<feFlood flood-opacity="0" result="BackgroundImageFix"/>
<feBlend mode="normal" in="SourceGraphic" in2="BackgroundImageFix" result="shape"/>
<feGaussianBlur stdDeviation="5" result="effect1_foregroundBlur_116_31"/>
</filter>
</defs>
</svg>
