<svg width="49" height="51" viewBox="0 0 49 51" fill="none" xmlns="http://www.w3.org/2000/svg">
<g filter="url(#filter0_f_9_344)">
<path d="M9 26.5C9 28.5355 9.40092 30.551 10.1799 32.4316C10.9588 34.3121 12.1005 36.0208 13.5398 37.4602C14.9792 38.8995 16.6879 40.0412 18.5684 40.8201C20.449 41.5991 22.4645 42 24.5 42C26.5355 42 28.551 41.5991 30.4316 40.8201C32.3121 40.0412 34.0208 38.8995 35.4602 37.4602C36.8995 36.0208 38.0412 34.3121 38.8201 32.4316C39.5991 30.551 40 28.5355 40 26.5C40 22.3891 38.367 18.4467 35.4602 15.5398C32.5533 12.633 28.6109 11 24.5 11C20.3891 11 16.4467 12.633 13.5398 15.5398C10.633 18.4467 9 22.3891 9 26.5Z" fill="#FFEBCD"/>
</g>
<path d="M6 18.5C6 20.9295 6.47852 23.3351 7.40823 25.5796C8.33794 27.8242 9.70064 29.8636 11.4185 31.5815C13.1364 33.2994 15.1758 34.6621 17.4204 35.5918C19.6649 36.5215 22.0705 37 24.5 37C26.9295 37 29.3351 36.5215 31.5796 35.5918C33.8242 34.6621 35.8636 33.2994 37.5815 31.5815C39.2994 29.8636 40.6621 27.8242 41.5918 25.5796C42.5215 23.3351 43 20.9295 43 18.5C43 13.5935 41.0509 8.88795 37.5815 5.41852C34.1121 1.9491 29.4065 0 24.5 0C19.5935 0 14.8879 1.9491 11.4185 5.41852C7.9491 8.88795 6 13.5935 6 18.5Z" fill="#FFF3C6"/>
<path d="M30.7718 9.45487V8.35391C30.7718 6.5869 29.0909 5.32415 27.4289 5.84102L16.1461 9.36032C15.0599 9.6986 14.3203 10.7176 14.3203 11.8732V28.2322C14.3203 29.8374 15.7091 31.0266 17.2072 30.8418H30.6415C32.8686 30.8418 34.6819 28.976 34.6819 26.6858V13.6066C34.6819 11.3606 32.9401 9.52421 30.7718 9.45487ZM21.506 23.862L25.912 22.242C26.5675 22.0004 27.2903 22.3471 27.5277 23.0131C27.7651 23.6792 27.4247 24.4146 26.7692 24.6562L22.3632 26.2761C22.2225 26.3286 22.0775 26.3538 21.9346 26.3538C21.4178 26.3538 20.9345 26.0282 20.7475 25.5071C20.5122 24.8369 20.8526 24.1015 21.506 23.862ZM32.5199 26.6858C32.5199 27.7658 31.6773 28.644 30.6415 28.644H24.3992L28.9459 27.2258C30.0322 26.8875 30.7718 25.8685 30.7718 24.7129V11.6568C31.7467 11.7261 32.5178 12.575 32.5178 13.6066V26.6858H32.5199Z" fill="#FFA21F"/>
<path d="M34.6819 16.7204V13.6066C34.6819 11.3605 32.9401 9.52417 30.7718 9.45274V8.35177C30.7718 6.58476 29.0909 5.32201 27.4289 5.83888L16.1461 9.35819C15.0599 9.69646 14.3203 10.7155 14.3203 11.8711V28.2301C14.3203 28.4843 14.3581 28.7259 14.4233 28.9549C15.5425 29.1739 16.6803 29.2844 17.8207 29.2848C22.9473 29.2848 27.5613 27.0997 30.7739 23.614V11.6568C31.7488 11.7261 32.5199 12.5749 32.5199 13.6066V21.3764C33.4675 19.9402 34.1962 18.371 34.6819 16.7204ZM26.7692 24.654L22.3632 26.274C22.2225 26.3265 22.0775 26.3517 21.9346 26.3517C21.4178 26.3517 20.9345 26.026 20.7475 25.505C20.5101 24.8389 20.8505 24.1036 21.506 23.8619L25.912 22.242C26.5675 22.0004 27.2903 22.3471 27.5277 23.0131C27.763 23.6791 27.4247 24.4145 26.7692 24.654Z" fill="#FEB54E"/>
<path d="M30.509 7.19832C29.9732 6.08895 28.6978 5.44602 27.4309 5.84103L16.1481 9.36033C15.0618 9.69861 14.3223 10.7176 14.3223 11.8732V23.0236C22.8779 22.3954 29.7316 15.672 30.509 7.19832Z" fill="#FFC26B"/>
<path d="M24.5421 6.74023L16.1461 9.36028C15.0599 9.69855 14.3203 10.7176 14.3203 11.8732V15.9325C18.8523 14.3777 22.5439 11.0306 24.5421 6.74023Z" fill="#FFCE89"/>
<g filter="url(#filter1_d_9_344)">
<path d="M21 25.5L27 23" stroke="url(#paint0_linear_9_344)" stroke-width="3" stroke-linecap="round" stroke-linejoin="round"/>
</g>
<defs>
<filter id="filter0_f_9_344" x="0" y="2" width="49" height="49" filterUnits="userSpaceOnUse" color-interpolation-filters="sRGB">
<feFlood flood-opacity="0" result="BackgroundImageFix"/>
<feBlend mode="normal" in="SourceGraphic" in2="BackgroundImageFix" result="shape"/>
<feGaussianBlur stdDeviation="4.5" result="effect1_foregroundBlur_9_344"/>
</filter>
<filter id="filter1_d_9_344" x="17.4995" y="21.4996" width="13.001" height="9.50073" filterUnits="userSpaceOnUse" color-interpolation-filters="sRGB">
<feFlood flood-opacity="0" result="BackgroundImageFix"/>
<feColorMatrix in="SourceAlpha" type="matrix" values="0 0 0 0 0 0 0 0 0 0 0 0 0 0 0 0 0 0 127 0" result="hardAlpha"/>
<feOffset dy="2"/>
<feGaussianBlur stdDeviation="1"/>
<feComposite in2="hardAlpha" operator="out"/>
<feColorMatrix type="matrix" values="0 0 0 0 1 0 0 0 0 0.480787 0 0 0 0 0.00151367 0 0 0 0.65 0"/>
<feBlend mode="normal" in2="BackgroundImageFix" result="effect1_dropShadow_9_344"/>
<feBlend mode="normal" in="SourceGraphic" in2="effect1_dropShadow_9_344" result="shape"/>
</filter>
<linearGradient id="paint0_linear_9_344" x1="28.875" y1="22.5" x2="24.6517" y2="28.1518" gradientUnits="userSpaceOnUse">
<stop stop-color="#FFF7AF"/>
<stop offset="1" stop-color="#FFD057"/>
</linearGradient>
</defs>
</svg>
