<svg width="47" height="46" viewBox="0 0 47 46" fill="none" xmlns="http://www.w3.org/2000/svg">
<path d="M36.5069 0H9.791C4.38358 0 0 4.38358 0 9.791V36.209C0 41.6164 4.38358 46 9.791 46H36.5069C41.9143 46 46.2979 41.6164 46.2979 36.209V9.791C46.2979 4.38358 41.9143 0 36.5069 0Z" fill="url(#paint0_linear_51_273)"/>
<path d="M16.6108 23.5759L13.6478 21.3375C13.5712 21.2758 13.5082 21.1991 13.4626 21.112C13.3982 20.9752 13.3821 20.8141 13.7122 20.8383L16.3451 22.4486C16.3837 22.4745 16.4272 22.4922 16.4729 22.5005C16.5187 22.5088 16.5656 22.5076 16.6108 22.497C16.6553 22.4894 16.6971 22.4707 16.7323 22.4425C16.7675 22.4143 16.795 22.3776 16.8121 22.3359C16.8169 22.3174 16.8169 22.298 16.8121 22.2796C16.8362 22.2087 16.8366 22.132 16.8134 22.0608C16.7902 21.9897 16.7445 21.928 16.6833 21.885L14.147 20.178C14.147 20.178 13.9859 20.0089 14.147 19.856C14.1864 19.814 14.2387 19.7864 14.2957 19.7776C14.3526 19.7689 14.4108 19.7794 14.461 19.8076L17.0778 21.3214C17.1195 21.3416 17.1648 21.3533 17.211 21.3558C17.2573 21.3582 17.3035 21.3513 17.3471 21.3355C17.3906 21.3198 17.4306 21.2954 17.4645 21.264C17.4985 21.2325 17.5258 21.1945 17.5448 21.1523C17.6978 20.8705 17.4482 20.79 17.4482 20.79L14.8233 19.1232C14.7809 19.0772 14.7573 19.0168 14.7573 18.9542C14.7573 18.8915 14.7809 18.8312 14.8233 18.7851C14.8654 18.7442 14.9217 18.7214 14.9803 18.7214C15.039 18.7214 15.0953 18.7442 15.1374 18.7851L18.5996 20.5082C18.6978 20.5649 18.7828 20.6417 18.8492 20.7336C19.0184 20.9288 19.1181 21.1746 19.1327 21.4325C19.1472 21.6903 19.0759 21.9458 18.9298 22.1588L24.4211 25.1782L23.4549 26.7322L18.2776 23.1491C18.1836 23.3244 18.0476 23.4735 17.8818 23.5831C17.7159 23.6927 17.5254 23.7594 17.3274 23.7772C17.0723 23.7972 16.8183 23.7259 16.6108 23.5759Z" fill="white"/>
<path d="M22.0708 25.6127L30.0501 22.392L28.5686 24.0104L22.6344 26.4662L22.0708 25.6127Z" fill="white"/>
<path d="M28.0367 23.1491C28.0367 23.1491 27.7468 21.9493 29.5343 21.3696C30.3932 21.0189 31.3332 20.9157 32.2478 21.0717C32.2478 21.0717 33.1657 21.2488 32.8355 22.0138C32.3856 22.7262 31.8099 23.351 31.1366 23.8576C30.5061 24.283 29.7386 24.4554 28.9868 24.3407C28.8441 24.3301 28.7051 24.2902 28.5786 24.2234C28.452 24.1565 28.3407 24.0643 28.2515 23.9524C28.1622 23.8405 28.0971 23.7114 28.0602 23.5732C28.0232 23.4349 28.0152 23.2905 28.0367 23.1491Z" fill="white"/>
<path d="M24.9643 26.3499C25.4319 25.5933 25.1885 24.5953 24.4206 24.1207C23.6528 23.6461 22.6512 23.8746 22.1836 24.6311C21.716 25.3876 21.9594 26.3857 22.7273 26.8603C23.4952 27.3349 24.4967 27.1064 24.9643 26.3499Z" fill="white"/>
<path d="M11.2887 39.1803C14.8556 41.5958 15.4756 35.7502 23.149 36.1689C30.8223 36.5876 32.1831 41.8052 35.0012 39.132C38.9144 35.4523 41.7809 30.5407 41.7809 24.7514C41.7819 22.304 41.3008 19.8803 40.3649 17.6188C39.429 15.3574 38.0568 13.3025 36.3266 11.5715C34.5963 9.8405 32.542 8.46736 30.2809 7.53052C28.0199 6.59368 25.5964 6.11148 23.149 6.11148C20.7002 6.11042 18.2752 6.5921 16.0127 7.52898C13.7502 8.46585 11.6945 9.83954 9.96334 11.5715C8.23214 13.3034 6.85935 15.3596 5.92345 17.6226C4.98756 19.8855 4.50692 22.3107 4.50904 24.7595C4.50904 30.75 6.65082 36.0884 11.2887 39.1803ZM19.1714 11.474C20.4446 11.0032 21.7915 10.7633 23.149 10.7654C24.5037 10.7641 25.8479 11.004 27.1185 11.474C32.473 13.0119 36.3539 17.5934 36.3539 22.9961C36.3539 29.6711 30.4439 35.0739 23.149 35.0739C15.854 35.0739 9.93596 29.6711 9.93596 22.9961C9.93596 17.5934 13.8169 13.0119 19.1714 11.474Z" fill="white"/>
<defs>
<linearGradient id="paint0_linear_51_273" x1="23.149" y1="-1.25608" x2="23.149" y2="51.7007" gradientUnits="userSpaceOnUse">
<stop stop-color="#5CF15E"/>
<stop offset="1" stop-color="#37C25E"/>
</linearGradient>
</defs>
</svg>
