<svg width="334" height="388" viewBox="0 0 334 388" fill="none" xmlns="http://www.w3.org/2000/svg">
<g filter="url(#filter0_b_50_9)">
<path d="M0 44C0 36.8203 5.8203 31 13 31H89.3912C99.4107 31 109.046 27.1437 116.299 20.2309L133.234 4.0897C135.651 1.78542 138.863 0.5 142.203 0.5H321C328.18 0.5 334 6.3203 334 13.5V374.5C334 381.68 328.18 387.5 321 387.5H13C5.82029 387.5 0 381.68 0 374.5V44Z" fill="url(#paint0_linear_50_9)"/>
<path d="M1 44C1 37.3726 6.37258 32 13 32H89.3912C99.6676 32 109.55 28.0449 116.989 20.9548L133.924 4.81357C136.155 2.68654 139.12 1.5 142.203 1.5H321C327.627 1.5 333 6.87258 333 13.5V374.5C333 381.127 327.627 386.5 321 386.5H13C6.37258 386.5 1 381.127 1 374.5V44Z" stroke="url(#paint1_linear_50_9)" stroke-width="2"/>
</g>
<defs>
<filter id="filter0_b_50_9" x="-20.3" y="-19.8" width="374.6" height="427.6" filterUnits="userSpaceOnUse" color-interpolation-filters="sRGB">
<feFlood flood-opacity="0" result="BackgroundImageFix"/>
<feGaussianBlur in="BackgroundImageFix" stdDeviation="10.15"/>
<feComposite in2="SourceAlpha" operator="in" result="effect1_backgroundBlur_50_9"/>
<feBlend mode="normal" in="SourceGraphic" in2="effect1_backgroundBlur_50_9" result="shape"/>
</filter>
<linearGradient id="paint0_linear_50_9" x1="167" y1="0.5" x2="167" y2="252" gradientUnits="userSpaceOnUse">
<stop stop-color="#FFF9DF" stop-opacity="0.84"/>
<stop offset="0.67" stop-color="#FFFDF2"/>
<stop offset="1" stop-color="white" stop-opacity="0"/>
</linearGradient>
<linearGradient id="paint1_linear_50_9" x1="167" y1="0.5" x2="167" y2="362.5" gradientUnits="userSpaceOnUse">
<stop stop-color="white"/>
<stop offset="0.759198" stop-color="white" stop-opacity="0.240802"/>
<stop offset="1" stop-color="white" stop-opacity="0"/>
</linearGradient>
</defs>
</svg>
