<svg width="369" height="297" viewBox="0 0 369 297" fill="none" xmlns="http://www.w3.org/2000/svg">
<g filter="url(#filter0_d_89_21)">
<path d="M13 34C13 24.6112 20.6112 17 30 17H206.654C210.134 17 213.53 18.0681 216.384 20.0602L252.616 45.3511C255.47 47.3432 258.866 48.4113 262.346 48.4113H339C348.389 48.4113 356 56.0225 356 65.4113V289H13L13 34Z" fill="url(#paint0_linear_89_21)"/>
</g>
<g filter="url(#filter1_d_89_21)">
<path d="M13 289V34C13 24.6112 20.6112 17 30 17H206.654C210.134 17 213.53 18.0681 216.384 20.0602L252.616 45.3511C255.47 47.3432 258.866 48.4113 262.346 48.4113H339C348.389 48.4113 356 56.0225 356 65.4113V289" stroke="white" stroke-width="1.5"/>
</g>
<defs>
<filter id="filter0_d_89_21" x="1" y="1" width="367" height="296" filterUnits="userSpaceOnUse" color-interpolation-filters="sRGB">
<feFlood flood-opacity="0" result="BackgroundImageFix"/>
<feColorMatrix in="SourceAlpha" type="matrix" values="0 0 0 0 0 0 0 0 0 0 0 0 0 0 0 0 0 0 127 0" result="hardAlpha"/>
<feOffset dy="-4"/>
<feGaussianBlur stdDeviation="6"/>
<feComposite in2="hardAlpha" operator="out"/>
<feColorMatrix type="matrix" values="0 0 0 0 0 0 0 0 0 0 0 0 0 0 0 0 0 0 0.06 0"/>
<feBlend mode="normal" in2="BackgroundImageFix" result="effect1_dropShadow_89_21"/>
<feBlend mode="normal" in="SourceGraphic" in2="effect1_dropShadow_89_21" result="shape"/>
</filter>
<filter id="filter1_d_89_21" x="0.25" y="0.25" width="368.5" height="296.75" filterUnits="userSpaceOnUse" color-interpolation-filters="sRGB">
<feFlood flood-opacity="0" result="BackgroundImageFix"/>
<feColorMatrix in="SourceAlpha" type="matrix" values="0 0 0 0 0 0 0 0 0 0 0 0 0 0 0 0 0 0 127 0" result="hardAlpha"/>
<feOffset dy="-4"/>
<feGaussianBlur stdDeviation="6"/>
<feComposite in2="hardAlpha" operator="out"/>
<feColorMatrix type="matrix" values="0 0 0 0 0 0 0 0 0 0 0 0 0 0 0 0 0 0 0.06 0"/>
<feBlend mode="normal" in2="BackgroundImageFix" result="effect1_dropShadow_89_21"/>
<feBlend mode="normal" in="SourceGraphic" in2="effect1_dropShadow_89_21" result="shape"/>
</filter>
<linearGradient id="paint0_linear_89_21" x1="184.5" y1="17" x2="184.5" y2="764" gradientUnits="userSpaceOnUse">
<stop stop-color="#FEF7DB"/>
<stop offset="1" stop-color="#FEFCF8"/>
</linearGradient>
</defs>
</svg>
