<svg width="14" height="15" viewBox="0 0 14 15" fill="none" xmlns="http://www.w3.org/2000/svg">
<path d="M0.919575 6.15067C0.991234 5.91335 1.18178 5.73971 1.41224 5.70394L4.89762 5.04782L6.45626 1.68692C6.55804 1.46356 6.77062 1.3222 7.00349 1.3222C7.2364 1.3222 7.44814 1.46354 7.55237 1.68692L9.11021 5.04782L12.5948 5.72662C12.8252 5.7624 13.0166 5.93603 13.0874 6.17335C13.1599 6.4098 13.0997 6.67068 12.9327 6.84431L10.4115 9.34055L11.0703 12.9684C11.1094 13.2136 11.0166 13.464 10.8268 13.6089C10.6457 13.8029 10.2722 13.7101 10.1835 13.6603L7.00349 11.9956L3.84384 13.6603C3.7551 13.7101 3.40407 13.8269 3.20055 13.6089C3.01241 13.464 2.91634 13.2136 2.95623 12.9684L3.59467 9.34055L1.07266 6.82075C0.906521 6.648 0.84709 6.38712 0.919575 6.15067Z" fill="#FEC534"/>
</svg>
