<svg width="64" height="64" viewBox="0 0 64 64" fill="none" xmlns="http://www.w3.org/2000/svg">
<path d="M50.4654 0H13.5346C6.05965 0 0 6.0989 0 13.6223V50.3777C0 57.9011 6.05965 64 13.5346 64H50.4654C57.9403 64 64 57.9011 64 50.3777V13.6223C64 6.0989 57.9403 0 50.4654 0Z" fill="url(#paint0_linear_114_13)"/>
<path d="M22.9621 32.8013L18.8661 29.687C18.7603 29.6012 18.6732 29.4944 18.6101 29.3733C18.5211 29.1828 18.4988 28.9588 18.9552 28.9924L22.5948 31.2329C22.6482 31.2689 22.7083 31.2934 22.7715 31.305C22.8347 31.3166 22.8996 31.3149 22.9621 31.3001C23.0236 31.2896 23.0814 31.2635 23.1301 31.2243C23.1787 31.1851 23.2167 31.1341 23.2404 31.0761C23.247 31.0503 23.247 31.0234 23.2404 30.9976C23.2736 30.8991 23.2742 30.7923 23.2421 30.6934C23.21 30.5944 23.1469 30.5086 23.0623 30.4487L19.5562 28.0738C19.5562 28.0738 19.3336 27.8385 19.5562 27.6257C19.6107 27.5673 19.6831 27.5289 19.7617 27.5167C19.8404 27.5045 19.9209 27.5192 19.9903 27.5585L23.6077 29.6645C23.6653 29.6927 23.7279 29.709 23.7918 29.7124C23.8557 29.7157 23.9197 29.7062 23.9799 29.6842C24.0401 29.6623 24.0953 29.6284 24.1422 29.5847C24.1892 29.5409 24.2269 29.488 24.2533 29.4293C24.4647 29.0372 24.1197 28.9252 24.1197 28.9252L20.4912 26.6063C20.4325 26.5421 20.3999 26.4582 20.3999 26.371C20.3999 26.2838 20.4325 26.1999 20.4912 26.1358C20.5493 26.079 20.6272 26.0472 20.7082 26.0472C20.7893 26.0472 20.8671 26.079 20.9253 26.1358L25.7114 28.5331C25.847 28.612 25.9646 28.7189 26.0564 28.8468C26.2903 29.1183 26.4281 29.4603 26.4482 29.8191C26.4683 30.1779 26.3697 30.5333 26.1677 30.8296L33.7587 35.0306L32.423 37.1926L25.2661 32.2075C25.1363 32.4513 24.9483 32.6588 24.719 32.8113C24.4898 32.9638 24.2265 33.0566 23.9527 33.0813C23.6 33.1092 23.2489 33.0099 22.9621 32.8013Z" fill="white"/>
<path d="M30.5098 35.635L41.54 31.154L39.492 33.4057L31.2889 36.8225L30.5098 35.635Z" fill="white"/>
<path d="M38.7565 32.2074C38.7565 32.2074 38.3558 30.5382 40.8267 29.7316C42.014 29.2437 43.3134 29.1001 44.5777 29.3171C44.5777 29.3171 45.8465 29.5636 45.3902 30.6278C44.7682 31.6191 43.9724 32.4883 43.0417 33.1932C42.1701 33.785 41.1092 34.025 40.0698 33.8654C39.8726 33.8506 39.6805 33.7951 39.5055 33.7021C39.3306 33.6091 39.1767 33.4808 39.0534 33.3251C38.93 33.1694 38.84 32.9898 38.7889 32.7975C38.7378 32.6051 38.7268 32.4042 38.7565 32.2074Z" fill="white"/>
<path d="M34.5095 36.6606C35.1559 35.6081 34.8194 34.2195 33.7579 33.5592C32.6964 32.8988 31.3119 33.2168 30.6655 34.2693C30.0191 35.3219 30.3556 36.7105 31.4171 37.3708C32.4786 38.0312 33.8631 37.7132 34.5095 36.6606Z" fill="white"/>
<path d="M15.6047 54.5117C20.5355 57.8725 21.3926 49.7394 31.9999 50.322C42.6072 50.9045 44.4882 58.1637 48.3839 54.4445C53.7933 49.3249 57.7557 42.4914 57.7557 34.4368C57.7571 31.0316 57.092 27.6596 55.7983 24.5132C54.5046 21.3668 52.6077 18.5078 50.2159 16.0995C47.8241 13.6912 44.9843 11.7807 41.8588 10.4773C38.7332 9.17384 35.3831 8.50296 31.9999 8.50296C28.6148 8.50149 25.2626 9.17165 22.135 10.4751C19.0074 11.7786 16.1658 13.6898 13.7727 16.0995C11.3796 18.5091 9.48187 21.37 8.18813 24.5184C6.8944 27.6668 6.22999 31.041 6.23292 34.448C6.23292 42.7827 9.19361 50.2099 15.6047 54.5117ZM26.5014 15.9638C28.2614 15.3089 30.1234 14.975 31.9999 14.978C33.8726 14.9761 35.7307 15.3099 37.4872 15.9638C44.8889 18.1035 50.2538 24.4778 50.2538 31.9946C50.2538 41.2815 42.084 48.7984 31.9999 48.7984C21.9157 48.7984 13.7348 41.2815 13.7348 31.9946C13.7348 24.4778 19.0997 18.1035 26.5014 15.9638Z" fill="white"/>
<defs>
<linearGradient id="paint0_linear_114_13" x1="32" y1="-1.74759" x2="32" y2="71.9314" gradientUnits="userSpaceOnUse">
<stop stop-color="#5CF15E"/>
<stop offset="1" stop-color="#37C25E"/>
</linearGradient>
</defs>
</svg>
